<svg width="387" height="92" viewBox="0 0 387 92" fill="none" xmlns="http://www.w3.org/2000/svg">
<path d="M134.103 25.617V42.976H117.314V25.617H107.874V69.6479H117.314V51.402H134.103V69.6479H143.542V25.617H134.103ZM155.732 31.3822C159.153 31.3822 161.814 28.9114 161.814 25.4269C161.814 22.0058 159.153 19.4717 155.732 19.4717C152.311 19.4717 149.587 22.0058 149.587 25.4269C149.587 28.9114 152.311 31.3822 155.732 31.3822ZM150.981 69.6479H160.357V36.2604H150.981V69.6479ZM189.557 36.2604L181.511 60.525L173.529 36.2604H163.836L176.063 69.6479H186.96L199.25 36.2604H189.557ZM208.756 55.8368H233.781C233.907 55.0132 233.971 53.7461 233.971 52.289C233.971 43.9263 227.572 35.5002 216.802 35.5002C207.235 35.5002 199.57 43.2927 199.57 52.9859C199.57 62.9324 206.602 70.4715 217.435 70.4715C225.608 70.4715 229.916 67.1138 232.514 63.3126L225.355 58.561C223.897 61.2219 221.807 62.679 217.689 62.679C213.254 62.679 209.833 60.2082 208.756 55.8368ZM208.629 49.6915C209.58 45.13 212.747 42.5958 217.055 42.5958C221.363 42.5958 224.278 45.3201 225.165 49.6915H208.629ZM258.093 35.5002C254.101 35.5002 250.744 36.8306 248.273 39.1747V23.3362H238.897V69.6479H247.576V66.1635C250.047 68.8877 253.531 70.4715 257.839 70.4715C267.469 70.4715 274.438 62.9324 274.438 52.9859C274.438 42.976 267.723 35.5002 258.093 35.5002ZM256.572 62.1722C251.377 62.1722 247.893 58.4343 247.893 52.9859C247.893 47.5374 251.377 43.7362 256.572 43.7362C261.514 43.7362 265.125 47.6641 265.125 52.9859C265.125 58.3076 261.514 62.1722 256.572 62.1722ZM304.948 36.2604V40.3151C302.54 37.5909 299.056 36.0704 294.685 36.0704C285.055 36.0704 278.086 42.976 278.086 52.9859C278.086 62.9324 285.055 70.4715 294.685 70.4715C299.056 70.4715 302.54 68.8243 304.948 65.9734V69.6479H313.627V36.2604H304.948ZM296.015 62.1722C291.01 62.1722 287.399 58.3076 287.399 52.9859C287.399 47.6641 291.01 43.7362 296.015 43.7362C301.147 43.7362 304.631 47.5374 304.631 52.9859C304.631 58.4343 301.147 62.1722 296.015 62.1722ZM332.67 70.4715C341.223 70.4715 346.735 66.3535 346.735 59.638C346.735 47.3474 328.869 50.5784 328.869 45.1933C328.869 43.4828 330.263 42.4691 332.797 42.4691C335.268 42.4691 337.042 43.6095 337.865 45.8902L345.784 42.8492C344.391 38.2244 339.576 35.5002 332.924 35.5002C324.814 35.5002 319.619 39.3648 319.619 45.7002C319.619 57.1672 337.422 54.3797 337.422 60.2082C337.422 62.1088 335.775 63.2492 332.987 63.2492C329.249 63.2492 326.842 61.5386 325.955 58.6244L318.035 61.6654C319.936 67.4306 325.258 70.4715 332.67 70.4715ZM359.16 55.8368H384.184C384.311 55.0132 384.374 53.7461 384.374 52.289C384.374 43.9263 377.976 35.5002 367.206 35.5002C357.639 35.5002 349.973 43.2927 349.973 52.9859C349.973 62.9324 357.006 70.4715 367.839 70.4715C376.012 70.4715 380.32 67.1138 382.917 63.3126L375.758 58.561C374.301 61.2219 372.21 62.679 368.092 62.679C363.658 62.679 360.237 60.2082 359.16 55.8368ZM359.033 49.6915C359.983 45.13 363.151 42.5958 367.459 42.5958C371.767 42.5958 374.681 45.3201 375.568 49.6915H359.033Z" fill="#3A4052"/>
<path d="M15.1 65.6998C13.2 65.6998 11.4 64.6998 10.4 62.9998L1.59998 47.6998C0.599976 45.9998 0.599976 43.8998 1.59998 42.2998L10.4 26.9998C11.4 25.2998 13.2 24.2998 15.1 24.2998H32.8C34.7 24.2998 36.5 25.2998 37.5 26.9998L46.3 42.2998C47.3 43.9998 47.3 46.0998 46.3 47.6998L37.5 62.9998C36.5 64.6998 34.7 65.6998 32.8 65.6998H15.1Z" fill="url(#paint0_linear_3_102)"/>
<path d="M55.7 42.2999C53.8 42.2999 52 41.2999 51 39.5999L42.2 24.2999C41.2 22.5999 41.2 20.4999 42.2 18.8999L51 3.59991C52 1.89991 53.8 0.899902 55.7 0.899902H73.3999C75.2999 0.899902 77.1 1.89991 78.1 3.59991L86.8999 18.8999C87.8999 20.5999 87.8999 22.6999 86.8999 24.2999L78.1 39.5999C77.1 41.2999 75.2999 42.2999 73.3999 42.2999H55.7Z" fill="url(#paint1_linear_3_102)"/>
<path d="M55.7 89.1998C53.8 89.1998 52 88.1998 51 86.4998L42.2 71.1998C41.2 69.4998 41.2 67.3998 42.2 65.7998L51 50.4998C52 48.7998 53.8 47.7998 55.7 47.7998H73.3999C75.2999 47.7998 77.1 48.7998 78.1 50.4998L86.8999 65.7998C87.8999 67.4998 87.8999 69.5998 86.8999 71.1998L78.1 86.4998C77.1 88.1998 75.2999 89.1998 73.3999 89.1998H55.7Z" fill="url(#paint2_linear_3_102)"/>
<defs>
<linearGradient id="paint0_linear_3_102" x1="45.7482" y1="45.6694" x2="2.07548" y2="44.3285" gradientUnits="userSpaceOnUse">
<stop stop-color="#FF8000"/>
<stop offset="1" stop-color="#FFC500"/>
</linearGradient>
<linearGradient id="paint1_linear_3_102" x1="53.0525" y1="40.9152" x2="75.4634" y2="3.1805" gradientUnits="userSpaceOnUse">
<stop stop-color="#FF8000"/>
<stop offset="1" stop-color="#FFC500"/>
</linearGradient>
<linearGradient id="paint2_linear_3_102" x1="53.7273" y1="48.9439" x2="75.9468" y2="88.9772" gradientUnits="userSpaceOnUse">
<stop stop-color="#FF8000"/>
<stop offset="1" stop-color="#FFC500"/>
</linearGradient>
</defs>
</svg>
