<svg width="2304" height="1250" viewBox="0 0 2304 1250" fill="none" xmlns="http://www.w3.org/2000/svg">
<path d="M1731 625C1731 714.223 1666.5 795.205 1561.78 853.938C1457.09 912.653 1312.39 949 1152.5 949C992.614 949 847.914 912.653 743.221 853.938C638.495 795.205 574 714.223 574 625C574 535.777 638.495 454.795 743.221 396.062C847.914 337.347 992.614 301 1152.5 301C1312.39 301 1457.09 337.347 1561.78 396.062C1666.5 454.795 1731 535.777 1731 625Z" stroke="url(#paint0_radial_14_358)" stroke-opacity="0.19" stroke-width="2"/>
<path d="M1861 625C1861 734.382 1781.95 833.613 1653.7 905.556C1525.48 977.482 1348.28 1022 1152.5 1022C956.716 1022 779.516 977.482 651.297 905.556C523.046 833.613 444 734.382 444 625C444 515.618 523.046 416.387 651.297 344.444C779.516 272.518 956.716 228 1152.5 228C1348.28 228 1525.48 272.518 1653.7 344.444C1781.95 416.387 1861 515.618 1861 625Z" stroke="url(#paint1_radial_14_358)" stroke-opacity="0.19" stroke-width="2"/>
<path d="M1993 625C1993 754.816 1899.18 872.548 1747.04 957.882C1594.94 1043.2 1384.74 1096 1152.5 1096C920.265 1096 710.065 1043.2 557.959 957.882C405.821 872.548 312 754.816 312 625C312 495.184 405.821 377.452 557.959 292.118C710.065 206.801 920.265 154 1152.5 154C1384.74 154 1594.94 206.801 1747.04 292.118C1899.18 377.452 1993 495.184 1993 625Z" stroke="url(#paint2_radial_14_358)" stroke-opacity="0.19" stroke-width="2"/>
<path d="M2129 625C2129 775.803 2019.96 912.534 1843.21 1011.62C1666.49 1110.69 1422.29 1172 1152.5 1172C882.71 1172 638.509 1110.69 461.792 1011.62C285.043 912.534 176 775.803 176 625C176 474.197 285.043 337.466 461.792 238.378C638.509 139.308 882.71 78 1152.5 78C1422.29 78 1666.49 139.308 1843.21 238.378C2019.96 337.466 2129 474.197 2129 625Z" stroke="url(#paint3_radial_14_358)" stroke-opacity="0.19" stroke-width="2"/>
<path d="M2265 625C2265 797.066 2140.68 953.047 1939.23 1066.07C1737.81 1179.07 1459.48 1249 1152 1249C844.516 1249 566.191 1179.07 364.772 1066.07C163.322 953.047 39 797.066 39 625C39 452.934 163.322 296.953 364.772 183.93C566.191 70.9261 844.516 1 1152 1C1459.48 1 1737.81 70.9261 1939.23 183.93C2140.68 296.953 2265 452.934 2265 625Z" stroke="url(#paint4_radial_14_358)" stroke-opacity="0.19" stroke-width="2"/>
<g filter="url(#filter0_d_14_358)">
<rect x="352" y="667" width="134" height="48" rx="10" fill="#282A2F"/>
<rect x="352.5" y="667.5" width="133" height="47" rx="9.5" stroke="#353940"/>
</g>
<path d="M370.83 700H368.614L375.023 682.545H377.205L383.614 700H381.398L376.182 685.307H376.045L370.83 700ZM371.648 693.182H380.58V695.057H371.648V693.182ZM386.332 700V682.545H396.866V684.42H388.446V690.318H396.321V692.193H388.446V698.125H397.003V700H386.332ZM410.222 686.909C410.119 686.045 409.705 685.375 408.977 684.898C408.25 684.42 407.358 684.182 406.301 684.182C405.528 684.182 404.852 684.307 404.273 684.557C403.699 684.807 403.25 685.151 402.926 685.588C402.608 686.026 402.449 686.523 402.449 687.08C402.449 687.545 402.56 687.946 402.781 688.281C403.009 688.611 403.298 688.886 403.651 689.108C404.003 689.324 404.372 689.503 404.759 689.645C405.145 689.781 405.5 689.892 405.824 689.977L407.597 690.455C408.051 690.574 408.557 690.739 409.114 690.949C409.676 691.159 410.213 691.446 410.724 691.81C411.241 692.168 411.668 692.628 412.003 693.19C412.338 693.753 412.506 694.443 412.506 695.261C412.506 696.205 412.259 697.057 411.764 697.818C411.276 698.58 410.56 699.185 409.616 699.634C408.679 700.082 407.54 700.307 406.199 700.307C404.949 700.307 403.866 700.105 402.952 699.702C402.043 699.298 401.327 698.736 400.804 698.014C400.287 697.293 399.994 696.455 399.926 695.5H402.108C402.165 696.159 402.386 696.705 402.773 697.136C403.165 697.562 403.659 697.881 404.256 698.091C404.858 698.295 405.506 698.398 406.199 698.398C407.006 698.398 407.73 698.267 408.372 698.006C409.014 697.739 409.523 697.369 409.898 696.898C410.273 696.42 410.46 695.864 410.46 695.227C410.46 694.648 410.298 694.176 409.974 693.812C409.651 693.449 409.224 693.153 408.696 692.926C408.168 692.699 407.597 692.5 406.983 692.33L404.835 691.716C403.472 691.324 402.392 690.764 401.597 690.037C400.801 689.31 400.403 688.358 400.403 687.182C400.403 686.205 400.668 685.352 401.196 684.625C401.73 683.892 402.446 683.324 403.344 682.92C404.247 682.511 405.256 682.307 406.369 682.307C407.494 682.307 408.494 682.509 409.369 682.912C410.244 683.31 410.938 683.855 411.449 684.548C411.966 685.241 412.239 686.028 412.267 686.909H410.222ZM423.208 690.335V692.21H415.572V690.335H423.208ZM425.893 700V698.466L431.654 692.159C432.33 691.42 432.887 690.778 433.325 690.233C433.762 689.682 434.086 689.165 434.296 688.682C434.512 688.193 434.62 687.682 434.62 687.148C434.62 686.534 434.472 686.003 434.177 685.554C433.887 685.105 433.489 684.759 432.984 684.514C432.478 684.27 431.91 684.148 431.279 684.148C430.609 684.148 430.023 684.287 429.523 684.565C429.029 684.838 428.646 685.222 428.373 685.716C428.106 686.21 427.972 686.79 427.972 687.455H425.961C425.961 686.432 426.197 685.534 426.668 684.761C427.14 683.989 427.782 683.386 428.594 682.955C429.413 682.523 430.33 682.307 431.347 682.307C432.37 682.307 433.276 682.523 434.066 682.955C434.856 683.386 435.475 683.969 435.924 684.702C436.373 685.435 436.597 686.25 436.597 687.148C436.597 687.79 436.481 688.418 436.248 689.031C436.021 689.639 435.623 690.318 435.055 691.068C434.492 691.812 433.711 692.722 432.711 693.795L428.79 697.989V698.125H436.904V700H425.893ZM445.879 700.239C444.879 700.239 443.978 700.04 443.177 699.642C442.376 699.244 441.734 698.699 441.251 698.006C440.768 697.312 440.504 696.523 440.458 695.636H442.504C442.583 696.426 442.941 697.08 443.577 697.597C444.219 698.108 444.987 698.364 445.879 698.364C446.594 698.364 447.231 698.196 447.788 697.861C448.35 697.526 448.79 697.065 449.109 696.48C449.433 695.889 449.594 695.222 449.594 694.477C449.594 693.716 449.427 693.037 449.092 692.44C448.762 691.838 448.308 691.364 447.728 691.017C447.148 690.67 446.487 690.494 445.742 690.489C445.208 690.483 444.66 690.565 444.097 690.736C443.535 690.901 443.072 691.114 442.708 691.375L440.731 691.136L441.788 682.545H450.856V684.42H443.56L442.947 689.568H443.049C443.407 689.284 443.856 689.048 444.396 688.861C444.935 688.673 445.498 688.58 446.083 688.58C447.151 688.58 448.103 688.835 448.938 689.347C449.779 689.852 450.438 690.545 450.915 691.426C451.398 692.307 451.64 693.312 451.64 694.443C451.64 695.557 451.39 696.551 450.89 697.426C450.396 698.295 449.714 698.983 448.844 699.489C447.975 699.989 446.987 700.239 445.879 700.239ZM460.821 700.239C460.105 700.227 459.389 700.091 458.673 699.83C457.957 699.568 457.304 699.128 456.713 698.509C456.122 697.884 455.648 697.04 455.29 695.977C454.932 694.909 454.753 693.568 454.753 691.955C454.753 690.409 454.898 689.04 455.188 687.847C455.477 686.648 455.898 685.639 456.449 684.821C457 683.997 457.665 683.372 458.443 682.946C459.227 682.52 460.111 682.307 461.094 682.307C462.071 682.307 462.94 682.503 463.702 682.895C464.469 683.281 465.094 683.821 465.577 684.514C466.06 685.207 466.372 686.006 466.514 686.909H464.435C464.241 686.125 463.866 685.474 463.31 684.957C462.753 684.44 462.014 684.182 461.094 684.182C459.741 684.182 458.676 684.77 457.898 685.946C457.125 687.122 456.736 688.773 456.73 690.898H456.866C457.185 690.415 457.562 690.003 458 689.662C458.443 689.315 458.932 689.048 459.466 688.861C460 688.673 460.565 688.58 461.162 688.58C462.162 688.58 463.077 688.83 463.906 689.33C464.736 689.824 465.401 690.509 465.901 691.384C466.401 692.253 466.651 693.25 466.651 694.375C466.651 695.455 466.409 696.443 465.926 697.341C465.443 698.233 464.764 698.943 463.889 699.472C463.02 699.994 461.997 700.25 460.821 700.239ZM460.821 698.364C461.537 698.364 462.179 698.185 462.747 697.827C463.321 697.469 463.773 696.989 464.102 696.386C464.438 695.784 464.605 695.114 464.605 694.375C464.605 693.653 464.443 692.997 464.119 692.406C463.801 691.81 463.361 691.335 462.798 690.983C462.241 690.631 461.605 690.455 460.889 690.455C460.349 690.455 459.847 690.562 459.381 690.778C458.915 690.989 458.506 691.278 458.153 691.648C457.807 692.017 457.534 692.44 457.335 692.918C457.136 693.389 457.037 693.886 457.037 694.409C457.037 695.102 457.199 695.75 457.523 696.352C457.852 696.955 458.301 697.44 458.869 697.81C459.443 698.179 460.094 698.364 460.821 698.364Z" fill="white" fill-opacity="0.5"/>
<g filter="url(#filter1_d_14_358)">
<rect x="601" y="343" width="155" height="48" rx="10" fill="#282A2F"/>
<rect x="601.5" y="343.5" width="154" height="47" rx="9.5" stroke="#353940"/>
</g>
<path d="M619.83 376H617.614L624.023 358.545H626.205L632.614 376H630.398L625.182 361.307H625.045L619.83 376ZM620.648 369.182H629.58V371.057H620.648V369.182ZM643.31 370.648V362.909H645.321V376H643.31V373.784H643.173C642.866 374.449 642.389 375.014 641.741 375.48C641.094 375.94 640.276 376.17 639.287 376.17C638.469 376.17 637.741 375.991 637.105 375.634C636.469 375.27 635.969 374.724 635.605 373.997C635.241 373.264 635.06 372.341 635.06 371.227V362.909H637.071V371.091C637.071 372.045 637.338 372.807 637.872 373.375C638.412 373.943 639.099 374.227 639.935 374.227C640.435 374.227 640.943 374.099 641.46 373.844C641.983 373.588 642.42 373.196 642.773 372.668C643.131 372.139 643.31 371.466 643.31 370.648ZM653.948 376.273C652.857 376.273 651.894 375.997 651.059 375.446C650.224 374.889 649.57 374.105 649.099 373.094C648.627 372.077 648.391 370.875 648.391 369.489C648.391 368.114 648.627 366.92 649.099 365.909C649.57 364.898 650.227 364.116 651.067 363.565C651.908 363.014 652.88 362.739 653.982 362.739C654.835 362.739 655.508 362.881 656.002 363.165C656.502 363.443 656.883 363.761 657.144 364.119C657.411 364.472 657.619 364.761 657.766 364.989H657.937V358.545H659.948V376H658.005V373.989H657.766C657.619 374.227 657.408 374.528 657.136 374.892C656.863 375.25 656.474 375.571 655.968 375.855C655.462 376.134 654.789 376.273 653.948 376.273ZM654.221 374.466C655.028 374.466 655.71 374.256 656.266 373.835C656.823 373.409 657.246 372.821 657.536 372.071C657.826 371.315 657.971 370.443 657.971 369.455C657.971 368.477 657.829 367.622 657.545 366.889C657.261 366.151 656.84 365.577 656.283 365.168C655.727 364.753 655.039 364.545 654.221 364.545C653.369 364.545 652.658 364.764 652.09 365.202C651.528 365.634 651.104 366.222 650.82 366.966C650.542 367.705 650.403 368.534 650.403 369.455C650.403 370.386 650.545 371.233 650.829 371.994C651.119 372.75 651.545 373.352 652.107 373.801C652.675 374.244 653.38 374.466 654.221 374.466ZM663.911 376V362.909H665.923V376H663.911ZM664.934 360.727C664.542 360.727 664.204 360.594 663.92 360.327C663.641 360.06 663.502 359.739 663.502 359.364C663.502 358.989 663.641 358.668 663.92 358.401C664.204 358.134 664.542 358 664.934 358C665.326 358 665.661 358.134 665.94 358.401C666.224 358.668 666.366 358.989 666.366 359.364C666.366 359.739 666.224 360.06 665.94 360.327C665.661 360.594 665.326 360.727 664.934 360.727ZM675.3 362.909V364.614H668.516V362.909H675.3ZM670.493 359.773H672.504V372.25C672.504 372.818 672.587 373.244 672.751 373.528C672.922 373.807 673.138 373.994 673.399 374.091C673.666 374.182 673.947 374.227 674.243 374.227C674.464 374.227 674.646 374.216 674.788 374.193C674.93 374.165 675.044 374.142 675.129 374.125L675.538 375.932C675.402 375.983 675.212 376.034 674.967 376.085C674.723 376.142 674.413 376.17 674.038 376.17C673.47 376.17 672.913 376.048 672.368 375.804C671.828 375.56 671.379 375.188 671.021 374.688C670.669 374.188 670.493 373.557 670.493 372.795V359.773ZM685.348 376V358.545H687.462V374.125H695.575V376H685.348ZM703.893 376.273C702.712 376.273 701.675 375.991 700.783 375.429C699.896 374.866 699.203 374.08 698.703 373.068C698.209 372.057 697.962 370.875 697.962 369.523C697.962 368.159 698.209 366.969 698.703 365.952C699.203 364.935 699.896 364.145 700.783 363.582C701.675 363.02 702.712 362.739 703.893 362.739C705.075 362.739 706.109 363.02 706.996 363.582C707.888 364.145 708.581 364.935 709.075 365.952C709.575 366.969 709.825 368.159 709.825 369.523C709.825 370.875 709.575 372.057 709.075 373.068C708.581 374.08 707.888 374.866 706.996 375.429C706.109 375.991 705.075 376.273 703.893 376.273ZM703.893 374.466C704.791 374.466 705.53 374.236 706.109 373.776C706.689 373.315 707.118 372.71 707.396 371.96C707.675 371.21 707.814 370.398 707.814 369.523C707.814 368.648 707.675 367.832 707.396 367.077C707.118 366.321 706.689 365.71 706.109 365.244C705.53 364.778 704.791 364.545 703.893 364.545C702.996 364.545 702.257 364.778 701.678 365.244C701.098 365.71 700.669 366.321 700.391 367.077C700.112 367.832 699.973 368.648 699.973 369.523C699.973 370.398 700.112 371.21 700.391 371.96C700.669 372.71 701.098 373.315 701.678 373.776C702.257 374.236 702.996 374.466 703.893 374.466ZM718.18 381.182C717.208 381.182 716.373 381.057 715.674 380.807C714.975 380.562 714.393 380.239 713.927 379.835C713.467 379.438 713.1 379.011 712.827 378.557L714.43 377.432C714.612 377.67 714.842 377.943 715.12 378.25C715.398 378.562 715.779 378.832 716.262 379.06C716.751 379.293 717.39 379.409 718.18 379.409C719.237 379.409 720.109 379.153 720.796 378.642C721.484 378.131 721.827 377.33 721.827 376.239V373.58H721.657C721.509 373.818 721.299 374.114 721.026 374.466C720.759 374.812 720.373 375.122 719.867 375.395C719.367 375.662 718.691 375.795 717.839 375.795C716.782 375.795 715.833 375.545 714.992 375.045C714.157 374.545 713.495 373.818 713.006 372.864C712.523 371.909 712.282 370.75 712.282 369.386C712.282 368.045 712.518 366.878 712.989 365.884C713.461 364.884 714.117 364.111 714.958 363.565C715.799 363.014 716.771 362.739 717.873 362.739C718.725 362.739 719.401 362.881 719.901 363.165C720.407 363.443 720.793 363.761 721.06 364.119C721.333 364.472 721.543 364.761 721.691 364.989H721.896V362.909H723.839V376.375C723.839 377.5 723.583 378.415 723.072 379.119C722.566 379.83 721.884 380.349 721.026 380.679C720.174 381.014 719.225 381.182 718.18 381.182ZM718.112 373.989C718.918 373.989 719.6 373.804 720.157 373.435C720.714 373.065 721.137 372.534 721.427 371.841C721.717 371.148 721.862 370.318 721.862 369.352C721.862 368.409 721.719 367.577 721.435 366.855C721.151 366.134 720.731 365.568 720.174 365.159C719.617 364.75 718.93 364.545 718.112 364.545C717.259 364.545 716.549 364.761 715.981 365.193C715.418 365.625 714.995 366.205 714.711 366.932C714.433 367.659 714.293 368.466 714.293 369.352C714.293 370.261 714.435 371.065 714.719 371.764C715.009 372.457 715.435 373.003 715.998 373.401C716.566 373.793 717.271 373.989 718.112 373.989ZM736.793 365.841L734.987 366.352C734.873 366.051 734.705 365.759 734.484 365.474C734.268 365.185 733.972 364.946 733.597 364.759C733.222 364.571 732.742 364.477 732.157 364.477C731.356 364.477 730.688 364.662 730.154 365.031C729.626 365.395 729.362 365.858 729.362 366.42C729.362 366.92 729.543 367.315 729.907 367.605C730.271 367.895 730.839 368.136 731.612 368.33L733.555 368.807C734.725 369.091 735.597 369.526 736.171 370.111C736.745 370.69 737.032 371.437 737.032 372.352C737.032 373.102 736.816 373.773 736.384 374.364C735.958 374.955 735.362 375.42 734.594 375.761C733.827 376.102 732.935 376.273 731.918 376.273C730.583 376.273 729.478 375.983 728.603 375.403C727.728 374.824 727.174 373.977 726.941 372.864L728.85 372.386C729.032 373.091 729.376 373.619 729.881 373.972C730.393 374.324 731.06 374.5 731.884 374.5C732.822 374.5 733.566 374.301 734.117 373.903C734.674 373.5 734.952 373.017 734.952 372.455C734.952 372 734.793 371.619 734.475 371.312C734.157 371 733.668 370.767 733.009 370.614L730.827 370.102C729.629 369.818 728.748 369.378 728.185 368.781C727.629 368.179 727.35 367.426 727.35 366.523C727.35 365.784 727.558 365.131 727.972 364.562C728.393 363.994 728.964 363.548 729.685 363.224C730.413 362.901 731.237 362.739 732.157 362.739C733.452 362.739 734.469 363.023 735.208 363.591C735.952 364.159 736.481 364.909 736.793 365.841Z" fill="white" fill-opacity="0.5"/>
<g filter="url(#filter2_d_14_358)">
<rect x="1829" y="400" width="154" height="48" rx="10" fill="#282A2F"/>
<rect x="1829.5" y="400.5" width="153" height="47" rx="9.5" stroke="#353940"/>
</g>
<path d="M1853.33 415.545H1855.85L1861.78 430.034H1861.99L1867.92 415.545H1870.44V433H1868.46V419.739H1868.29L1862.84 433H1860.93L1855.48 419.739H1855.31V433H1853.33V415.545ZM1874.68 433V415.545H1885.15V417.42H1876.79V423.318H1884.36V425.193H1876.79V433H1874.68ZM1887.3 433H1885.09L1891.5 415.545H1893.68L1900.09 433H1897.87L1892.65 418.307H1892.52L1887.3 433ZM1888.12 426.182H1897.05V428.057H1888.12V426.182ZM1910.27 433H1908.06L1914.46 415.545H1916.65L1923.06 433H1920.84L1915.62 418.307H1915.49L1910.27 433ZM1911.09 426.182H1920.02V428.057H1911.09V426.182ZM1933.75 427.648V419.909H1935.76V433H1933.75V430.784H1933.61C1933.31 431.449 1932.83 432.014 1932.18 432.48C1931.54 432.94 1930.72 433.17 1929.73 433.17C1928.91 433.17 1928.18 432.991 1927.55 432.634C1926.91 432.27 1926.41 431.724 1926.05 430.997C1925.68 430.264 1925.5 429.341 1925.5 428.227V419.909H1927.51V428.091C1927.51 429.045 1927.78 429.807 1928.31 430.375C1928.85 430.943 1929.54 431.227 1930.38 431.227C1930.88 431.227 1931.38 431.099 1931.9 430.844C1932.42 430.588 1932.86 430.196 1933.21 429.668C1933.57 429.139 1933.75 428.466 1933.75 427.648ZM1945.14 419.909V421.614H1938.36V419.909H1945.14ZM1940.33 416.773H1942.34V429.25C1942.34 429.818 1942.43 430.244 1942.59 430.528C1942.76 430.807 1942.98 430.994 1943.24 431.091C1943.51 431.182 1943.79 431.227 1944.08 431.227C1944.3 431.227 1944.49 431.216 1944.63 431.193C1944.77 431.165 1944.88 431.142 1944.97 431.125L1945.38 432.932C1945.24 432.983 1945.05 433.034 1944.81 433.085C1944.56 433.142 1944.25 433.17 1943.88 433.17C1943.31 433.17 1942.75 433.048 1942.21 432.804C1941.67 432.56 1941.22 432.188 1940.86 431.688C1940.51 431.188 1940.33 430.557 1940.33 429.795V416.773ZM1950.46 425.125V433H1948.45V415.545H1950.46V421.955H1950.63C1950.94 421.278 1951.4 420.741 1952.01 420.344C1952.63 419.94 1953.45 419.739 1954.48 419.739C1955.37 419.739 1956.15 419.918 1956.82 420.276C1957.49 420.628 1958.01 421.17 1958.38 421.903C1958.76 422.631 1958.95 423.557 1958.95 424.682V433H1956.94V424.818C1956.94 423.778 1956.67 422.974 1956.13 422.406C1955.59 421.832 1954.85 421.545 1953.9 421.545C1953.24 421.545 1952.65 421.685 1952.13 421.963C1951.61 422.241 1951.2 422.648 1950.9 423.182C1950.61 423.716 1950.46 424.364 1950.46 425.125Z" fill="white" fill-opacity="0.5"/>
<g filter="url(#filter3_d_14_358)">
<rect x="1665" y="685" width="134" height="48" rx="10" fill="#282A2F"/>
<rect x="1665.5" y="685.5" width="133" height="47" rx="9.5" stroke="#353940"/>
</g>
<path d="M1702.2 718V700.545H1708.1C1709.46 700.545 1710.58 700.778 1711.46 701.244C1712.33 701.705 1712.98 702.338 1713.4 703.145C1713.82 703.952 1714.03 704.869 1714.03 705.898C1714.03 706.926 1713.82 707.838 1713.4 708.634C1712.98 709.429 1712.34 710.054 1711.47 710.509C1710.6 710.957 1709.49 711.182 1708.14 711.182H1703.36V709.273H1708.07C1709 709.273 1709.75 709.136 1710.32 708.864C1710.89 708.591 1711.31 708.205 1711.56 707.705C1711.82 707.199 1711.95 706.597 1711.95 705.898C1711.95 705.199 1711.82 704.588 1711.56 704.065C1711.3 703.543 1710.88 703.139 1710.31 702.855C1709.73 702.565 1708.98 702.42 1708.03 702.42H1704.32V718H1702.2ZM1710.42 710.159L1714.71 718H1712.26L1708.03 710.159H1710.42ZM1717.56 718V700.545H1723.66C1724.87 700.545 1725.88 700.756 1726.67 701.176C1727.46 701.591 1728.04 702.151 1728.43 702.855C1728.82 703.554 1729.01 704.33 1729.01 705.182C1729.01 705.932 1728.88 706.551 1728.61 707.04C1728.35 707.528 1728 707.915 1727.57 708.199C1727.14 708.483 1726.68 708.693 1726.18 708.83V709C1726.71 709.034 1727.25 709.222 1727.79 709.562C1728.33 709.903 1728.78 710.392 1729.15 711.028C1729.51 711.665 1729.69 712.443 1729.69 713.364C1729.69 714.239 1729.49 715.026 1729.09 715.724C1728.7 716.423 1728.07 716.977 1727.21 717.386C1726.35 717.795 1725.24 718 1723.86 718H1717.56ZM1719.67 716.125H1723.86C1725.24 716.125 1726.22 715.858 1726.8 715.324C1727.39 714.784 1727.68 714.131 1727.68 713.364C1727.68 712.773 1727.53 712.227 1727.23 711.727C1726.93 711.222 1726.5 710.818 1725.94 710.517C1725.38 710.21 1724.73 710.057 1723.96 710.057H1719.67V716.125ZM1719.67 708.216H1723.59C1724.23 708.216 1724.8 708.091 1725.31 707.841C1725.83 707.591 1726.24 707.239 1726.54 706.784C1726.84 706.33 1727 705.795 1727 705.182C1727 704.415 1726.73 703.764 1726.2 703.23C1725.66 702.69 1724.82 702.42 1723.66 702.42H1719.67V708.216ZM1733.88 718H1731.66L1738.07 700.545H1740.26L1746.66 718H1744.45L1739.23 703.307H1739.1L1733.88 718ZM1734.7 711.182H1743.63V713.057H1734.7V711.182ZM1762.61 706H1760.49C1760.37 705.392 1760.15 704.858 1759.84 704.398C1759.53 703.938 1759.16 703.551 1758.71 703.239C1758.28 702.92 1757.79 702.682 1757.26 702.523C1756.72 702.364 1756.17 702.284 1755.59 702.284C1754.53 702.284 1753.57 702.551 1752.71 703.085C1751.86 703.619 1751.18 704.406 1750.68 705.446C1750.18 706.486 1749.93 707.761 1749.93 709.273C1749.93 710.784 1750.18 712.06 1750.68 713.099C1751.18 714.139 1751.86 714.926 1752.71 715.46C1753.57 715.994 1754.53 716.261 1755.59 716.261C1756.17 716.261 1756.72 716.182 1757.26 716.023C1757.79 715.864 1758.28 715.628 1758.71 715.315C1759.16 714.997 1759.53 714.608 1759.84 714.148C1760.15 713.682 1760.37 713.148 1760.49 712.545H1762.61C1762.45 713.437 1762.16 714.236 1761.74 714.94C1761.32 715.645 1760.8 716.244 1760.17 716.739C1759.55 717.227 1758.84 717.599 1758.07 717.855C1757.29 718.111 1756.47 718.239 1755.59 718.239C1754.1 718.239 1752.77 717.875 1751.61 717.148C1750.45 716.42 1749.54 715.386 1748.88 714.045C1748.21 712.705 1747.88 711.114 1747.88 709.273C1747.88 707.432 1748.21 705.841 1748.88 704.5C1749.54 703.159 1750.45 702.125 1751.61 701.398C1752.77 700.67 1754.1 700.307 1755.59 700.307C1756.47 700.307 1757.29 700.435 1758.07 700.69C1758.84 700.946 1759.55 701.321 1760.17 701.815C1760.8 702.304 1761.32 702.901 1761.74 703.605C1762.16 704.304 1762.45 705.102 1762.61 706Z" fill="white" fill-opacity="0.5"/>
<g filter="url(#filter4_d_14_358)">
<rect x="2018" y="767" width="187" height="83" rx="10" fill="#282A2F"/>
<rect x="2018.5" y="767.5" width="186" height="82" rx="9.5" stroke="#353940"/>
</g>
<path d="M2048.62 788H2046.5C2046.38 787.392 2046.16 786.858 2045.85 786.398C2045.54 785.938 2045.16 785.551 2044.72 785.239C2044.28 784.92 2043.8 784.682 2043.26 784.523C2042.73 784.364 2042.17 784.284 2041.59 784.284C2040.54 784.284 2039.58 784.551 2038.72 785.085C2037.87 785.619 2037.19 786.406 2036.68 787.446C2036.18 788.486 2035.93 789.761 2035.93 791.273C2035.93 792.784 2036.18 794.06 2036.68 795.099C2037.19 796.139 2037.87 796.926 2038.72 797.46C2039.58 797.994 2040.54 798.261 2041.59 798.261C2042.17 798.261 2042.73 798.182 2043.26 798.023C2043.8 797.864 2044.28 797.628 2044.72 797.315C2045.16 796.997 2045.54 796.608 2045.85 796.148C2046.16 795.682 2046.38 795.148 2046.5 794.545H2048.62C2048.46 795.437 2048.17 796.236 2047.75 796.94C2047.33 797.645 2046.8 798.244 2046.18 798.739C2045.55 799.227 2044.85 799.599 2044.07 799.855C2043.3 800.111 2042.47 800.239 2041.59 800.239C2040.1 800.239 2038.78 799.875 2037.62 799.148C2036.46 798.42 2035.55 797.386 2034.89 796.045C2034.22 794.705 2033.89 793.114 2033.89 791.273C2033.89 789.432 2034.22 787.841 2034.89 786.5C2035.55 785.159 2036.46 784.125 2037.62 783.398C2038.78 782.67 2040.1 782.307 2041.59 782.307C2042.47 782.307 2043.3 782.435 2044.07 782.69C2044.85 782.946 2045.55 783.321 2046.18 783.815C2046.8 784.304 2047.33 784.901 2047.75 785.605C2048.17 786.304 2048.46 787.102 2048.62 788ZM2057.08 800.273C2055.9 800.273 2054.86 799.991 2053.97 799.429C2053.08 798.866 2052.39 798.08 2051.89 797.068C2051.39 796.057 2051.15 794.875 2051.15 793.523C2051.15 792.159 2051.39 790.969 2051.89 789.952C2052.39 788.935 2053.08 788.145 2053.97 787.582C2054.86 787.02 2055.9 786.739 2057.08 786.739C2058.26 786.739 2059.29 787.02 2060.18 787.582C2061.07 788.145 2061.76 788.935 2062.26 789.952C2062.76 790.969 2063.01 792.159 2063.01 793.523C2063.01 794.875 2062.76 796.057 2062.26 797.068C2061.76 798.08 2061.07 798.866 2060.18 799.429C2059.29 799.991 2058.26 800.273 2057.08 800.273ZM2057.08 798.466C2057.97 798.466 2058.71 798.236 2059.29 797.776C2059.87 797.315 2060.3 796.71 2060.58 795.96C2060.86 795.21 2061 794.398 2061 793.523C2061 792.648 2060.86 791.832 2060.58 791.077C2060.3 790.321 2059.87 789.71 2059.29 789.244C2058.71 788.778 2057.97 788.545 2057.08 788.545C2056.18 788.545 2055.44 788.778 2054.86 789.244C2054.28 789.71 2053.85 790.321 2053.57 791.077C2053.3 791.832 2053.16 792.648 2053.16 793.523C2053.16 794.398 2053.3 795.21 2053.57 795.96C2053.85 796.71 2054.28 797.315 2054.86 797.776C2055.44 798.236 2056.18 798.466 2057.08 798.466ZM2066.08 800V786.909H2068.02V788.955H2068.19C2068.47 788.256 2068.91 787.713 2069.51 787.327C2070.12 786.935 2070.85 786.739 2071.7 786.739C2072.57 786.739 2073.29 786.935 2073.86 787.327C2074.44 787.713 2074.89 788.256 2075.22 788.955H2075.35C2075.69 788.278 2076.19 787.741 2076.86 787.344C2077.53 786.94 2078.33 786.739 2079.27 786.739C2080.44 786.739 2081.4 787.105 2082.14 787.838C2082.89 788.565 2083.26 789.699 2083.26 791.239V800H2081.25V791.239C2081.25 790.273 2080.99 789.582 2080.46 789.168C2079.93 788.753 2079.31 788.545 2078.59 788.545C2077.67 788.545 2076.96 788.824 2076.45 789.381C2075.95 789.932 2075.69 790.631 2075.69 791.477V800H2073.65V791.034C2073.65 790.29 2073.41 789.69 2072.92 789.236C2072.44 788.776 2071.82 788.545 2071.06 788.545C2070.53 788.545 2070.05 788.685 2069.59 788.963C2069.14 789.241 2068.78 789.628 2068.5 790.122C2068.23 790.611 2068.09 791.176 2068.09 791.818V800H2066.08ZM2086.94 804.909V786.909H2088.88V788.989H2089.12C2089.27 788.761 2089.47 788.472 2089.73 788.119C2090 787.761 2090.38 787.443 2090.88 787.165C2091.38 786.881 2092.05 786.739 2092.9 786.739C2094.01 786.739 2094.98 787.014 2095.82 787.565C2096.66 788.116 2097.32 788.898 2097.79 789.909C2098.26 790.92 2098.5 792.114 2098.5 793.489C2098.5 794.875 2098.26 796.077 2097.79 797.094C2097.32 798.105 2096.66 798.889 2095.83 799.446C2094.99 799.997 2094.03 800.273 2092.94 800.273C2092.1 800.273 2091.42 800.134 2090.92 799.855C2090.41 799.571 2090.02 799.25 2089.75 798.892C2089.48 798.528 2089.27 798.227 2089.12 797.989H2088.95V804.909H2086.94ZM2088.92 793.455C2088.92 794.443 2089.06 795.315 2089.35 796.071C2089.64 796.821 2090.06 797.409 2090.62 797.835C2091.18 798.256 2091.86 798.466 2092.67 798.466C2093.51 798.466 2094.21 798.244 2094.77 797.801C2095.34 797.352 2095.77 796.75 2096.05 795.994C2096.34 795.233 2096.48 794.386 2096.48 793.455C2096.48 792.534 2096.34 791.705 2096.06 790.966C2095.78 790.222 2095.36 789.634 2094.79 789.202C2094.23 788.764 2093.52 788.545 2092.67 788.545C2091.85 788.545 2091.16 788.753 2090.6 789.168C2090.05 789.577 2089.63 790.151 2089.34 790.889C2089.06 791.622 2088.92 792.477 2088.92 793.455ZM2101.56 800V786.909H2103.51V788.886H2103.64C2103.88 788.239 2104.31 787.713 2104.94 787.31C2105.56 786.906 2106.27 786.705 2107.05 786.705C2107.2 786.705 2107.38 786.707 2107.61 786.713C2107.83 786.719 2108 786.727 2108.11 786.739V788.784C2108.04 788.767 2107.88 788.741 2107.64 788.707C2107.4 788.668 2107.15 788.648 2106.88 788.648C2106.25 788.648 2105.68 788.781 2105.18 789.048C2104.68 789.31 2104.29 789.673 2104 790.139C2103.72 790.599 2103.57 791.125 2103.57 791.716V800H2101.56ZM2115.41 800.273C2114.23 800.273 2113.19 799.991 2112.3 799.429C2111.42 798.866 2110.72 798.08 2110.22 797.068C2109.73 796.057 2109.48 794.875 2109.48 793.523C2109.48 792.159 2109.73 790.969 2110.22 789.952C2110.72 788.935 2111.42 788.145 2112.3 787.582C2113.19 787.02 2114.23 786.739 2115.41 786.739C2116.59 786.739 2117.63 787.02 2118.52 787.582C2119.41 788.145 2120.1 788.935 2120.59 789.952C2121.09 790.969 2121.34 792.159 2121.34 793.523C2121.34 794.875 2121.09 796.057 2120.59 797.068C2120.1 798.08 2119.41 798.866 2118.52 799.429C2117.63 799.991 2116.59 800.273 2115.41 800.273ZM2115.41 798.466C2116.31 798.466 2117.05 798.236 2117.63 797.776C2118.21 797.315 2118.64 796.71 2118.92 795.96C2119.19 795.21 2119.33 794.398 2119.33 793.523C2119.33 792.648 2119.19 791.832 2118.92 791.077C2118.64 790.321 2118.21 789.71 2117.63 789.244C2117.05 788.778 2116.31 788.545 2115.41 788.545C2114.52 788.545 2113.78 788.778 2113.2 789.244C2112.62 789.71 2112.19 790.321 2111.91 791.077C2111.63 791.832 2111.49 792.648 2111.49 793.523C2111.49 794.398 2111.63 795.21 2111.91 795.96C2112.19 796.71 2112.62 797.315 2113.2 797.776C2113.78 798.236 2114.52 798.466 2115.41 798.466ZM2124.42 800V786.909H2126.36V788.955H2126.53C2126.8 788.256 2127.24 787.713 2127.85 787.327C2128.46 786.935 2129.19 786.739 2130.04 786.739C2130.9 786.739 2131.62 786.935 2132.2 787.327C2132.78 787.713 2133.23 788.256 2133.55 788.955H2133.69C2134.02 788.278 2134.53 787.741 2135.2 787.344C2135.87 786.94 2136.67 786.739 2137.61 786.739C2138.78 786.739 2139.74 787.105 2140.48 787.838C2141.22 788.565 2141.6 789.699 2141.6 791.239V800H2139.59V791.239C2139.59 790.273 2139.32 789.582 2138.79 789.168C2138.26 788.753 2137.64 788.545 2136.93 788.545C2136.01 788.545 2135.29 788.824 2134.79 789.381C2134.28 789.932 2134.03 790.631 2134.03 791.477V800H2131.98V791.034C2131.98 790.29 2131.74 789.69 2131.26 789.236C2130.78 788.776 2130.15 788.545 2129.39 788.545C2128.87 788.545 2128.38 788.685 2127.93 788.963C2127.48 789.241 2127.11 789.628 2126.84 790.122C2126.56 790.611 2126.43 791.176 2126.43 791.818V800H2124.42ZM2145.27 800V786.909H2147.29V800H2145.27ZM2146.3 784.727C2145.91 784.727 2145.57 784.594 2145.28 784.327C2145 784.06 2144.87 783.739 2144.87 783.364C2144.87 782.989 2145 782.668 2145.28 782.401C2145.57 782.134 2145.91 782 2146.3 782C2146.69 782 2147.02 782.134 2147.3 782.401C2147.59 782.668 2147.73 782.989 2147.73 783.364C2147.73 783.739 2147.59 784.06 2147.3 784.327C2147.02 784.594 2146.69 784.727 2146.3 784.727ZM2160.24 789.841L2158.44 790.352C2158.32 790.051 2158.15 789.759 2157.93 789.474C2157.72 789.185 2157.42 788.946 2157.05 788.759C2156.67 788.571 2156.19 788.477 2155.61 788.477C2154.81 788.477 2154.14 788.662 2153.6 789.031C2153.07 789.395 2152.81 789.858 2152.81 790.42C2152.81 790.92 2152.99 791.315 2153.36 791.605C2153.72 791.895 2154.29 792.136 2155.06 792.33L2157 792.807C2158.17 793.091 2159.05 793.526 2159.62 794.111C2160.19 794.69 2160.48 795.437 2160.48 796.352C2160.48 797.102 2160.27 797.773 2159.83 798.364C2159.41 798.955 2158.81 799.42 2158.04 799.761C2157.28 800.102 2156.38 800.273 2155.37 800.273C2154.03 800.273 2152.93 799.983 2152.05 799.403C2151.18 798.824 2150.62 797.977 2150.39 796.864L2152.3 796.386C2152.48 797.091 2152.82 797.619 2153.33 797.972C2153.84 798.324 2154.51 798.5 2155.33 798.5C2156.27 798.5 2157.02 798.301 2157.57 797.903C2158.12 797.5 2158.4 797.017 2158.4 796.455C2158.4 796 2158.24 795.619 2157.92 795.312C2157.61 795 2157.12 794.767 2156.46 794.614L2154.28 794.102C2153.08 793.818 2152.2 793.378 2151.63 792.781C2151.08 792.179 2150.8 791.426 2150.8 790.523C2150.8 789.784 2151.01 789.131 2151.42 788.562C2151.84 787.994 2152.41 787.548 2153.13 787.224C2153.86 786.901 2154.69 786.739 2155.61 786.739C2156.9 786.739 2157.92 787.023 2158.66 787.591C2159.4 788.159 2159.93 788.909 2160.24 789.841ZM2169 800.273C2167.74 800.273 2166.65 799.994 2165.73 799.438C2164.82 798.875 2164.12 798.091 2163.63 797.085C2163.14 796.074 2162.9 794.898 2162.9 793.557C2162.9 792.216 2163.14 791.034 2163.63 790.011C2164.12 788.983 2164.81 788.182 2165.69 787.608C2166.58 787.028 2167.61 786.739 2168.79 786.739C2169.47 786.739 2170.15 786.852 2170.81 787.08C2171.48 787.307 2172.08 787.676 2172.63 788.188C2173.17 788.693 2173.61 789.364 2173.93 790.199C2174.26 791.034 2174.42 792.062 2174.42 793.284V794.136H2164.33V792.398H2172.37C2172.37 791.659 2172.22 791 2171.93 790.42C2171.64 789.841 2171.22 789.384 2170.69 789.048C2170.15 788.713 2169.52 788.545 2168.79 788.545C2167.99 788.545 2167.3 788.744 2166.71 789.142C2166.13 789.534 2165.69 790.045 2165.38 790.676C2165.06 791.307 2164.91 791.983 2164.91 792.705V793.864C2164.91 794.852 2165.08 795.69 2165.42 796.378C2165.76 797.06 2166.24 797.58 2166.86 797.938C2167.47 798.29 2168.19 798.466 2169 798.466C2169.53 798.466 2170 798.392 2170.43 798.244C2170.86 798.091 2171.23 797.864 2171.55 797.562C2171.86 797.256 2172.1 796.875 2172.27 796.42L2174.21 796.966C2174.01 797.625 2173.67 798.205 2173.18 798.705C2172.7 799.199 2172.1 799.585 2171.39 799.864C2170.68 800.136 2169.88 800.273 2169 800.273ZM2182.42 800.273C2181.33 800.273 2180.37 799.997 2179.53 799.446C2178.7 798.889 2178.04 798.105 2177.57 797.094C2177.1 796.077 2176.86 794.875 2176.86 793.489C2176.86 792.114 2177.1 790.92 2177.57 789.909C2178.04 788.898 2178.7 788.116 2179.54 787.565C2180.38 787.014 2181.35 786.739 2182.45 786.739C2183.31 786.739 2183.98 786.881 2184.47 787.165C2184.97 787.443 2185.36 787.761 2185.62 788.119C2185.88 788.472 2186.09 788.761 2186.24 788.989H2186.41V782.545H2188.42V800H2186.48V797.989H2186.24C2186.09 798.227 2185.88 798.528 2185.61 798.892C2185.34 799.25 2184.95 799.571 2184.44 799.855C2183.94 800.134 2183.26 800.273 2182.42 800.273ZM2182.69 798.466C2183.5 798.466 2184.18 798.256 2184.74 797.835C2185.3 797.409 2185.72 796.821 2186.01 796.071C2186.3 795.315 2186.44 794.443 2186.44 793.455C2186.44 792.477 2186.3 791.622 2186.02 790.889C2185.73 790.151 2185.31 789.577 2184.76 789.168C2184.2 788.753 2183.51 788.545 2182.69 788.545C2181.84 788.545 2181.13 788.764 2180.56 789.202C2180 789.634 2179.58 790.222 2179.29 790.966C2179.01 791.705 2178.88 792.534 2178.88 793.455C2178.88 794.386 2179.02 795.233 2179.3 795.994C2179.59 796.75 2180.02 797.352 2180.58 797.801C2181.15 798.244 2181.85 798.466 2182.69 798.466ZM2065.46 836V818.545H2067.57V834.125H2075.69V836H2065.46ZM2084.01 836.273C2082.82 836.273 2081.79 835.991 2080.9 835.429C2080.01 834.866 2079.32 834.08 2078.82 833.068C2078.32 832.057 2078.07 830.875 2078.07 829.523C2078.07 828.159 2078.32 826.969 2078.82 825.952C2079.32 824.935 2080.01 824.145 2080.9 823.582C2081.79 823.02 2082.82 822.739 2084.01 822.739C2085.19 822.739 2086.22 823.02 2087.11 823.582C2088 824.145 2088.69 824.935 2089.19 825.952C2089.69 826.969 2089.94 828.159 2089.94 829.523C2089.94 830.875 2089.69 832.057 2089.19 833.068C2088.69 834.08 2088 834.866 2087.11 835.429C2086.22 835.991 2085.19 836.273 2084.01 836.273ZM2084.01 834.466C2084.9 834.466 2085.64 834.236 2086.22 833.776C2086.8 833.315 2087.23 832.71 2087.51 831.96C2087.79 831.21 2087.93 830.398 2087.93 829.523C2087.93 828.648 2087.79 827.832 2087.51 827.077C2087.23 826.321 2086.8 825.71 2086.22 825.244C2085.64 824.778 2084.9 824.545 2084.01 824.545C2083.11 824.545 2082.37 824.778 2081.79 825.244C2081.21 825.71 2080.78 826.321 2080.5 827.077C2080.23 827.832 2080.09 828.648 2080.09 829.523C2080.09 830.398 2080.23 831.21 2080.5 831.96C2080.78 832.71 2081.21 833.315 2081.79 833.776C2082.37 834.236 2083.11 834.466 2084.01 834.466ZM2098.33 836.273C2097.15 836.273 2096.11 835.991 2095.22 835.429C2094.33 834.866 2093.64 834.08 2093.14 833.068C2092.64 832.057 2092.4 830.875 2092.4 829.523C2092.4 828.159 2092.64 826.969 2093.14 825.952C2093.64 824.935 2094.33 824.145 2095.22 823.582C2096.11 823.02 2097.15 822.739 2098.33 822.739C2099.51 822.739 2100.54 823.02 2101.43 823.582C2102.32 824.145 2103.01 824.935 2103.51 825.952C2104.01 826.969 2104.26 828.159 2104.26 829.523C2104.26 830.875 2104.01 832.057 2103.51 833.068C2103.01 834.08 2102.32 834.866 2101.43 835.429C2100.54 835.991 2099.51 836.273 2098.33 836.273ZM2098.33 834.466C2099.22 834.466 2099.96 834.236 2100.54 833.776C2101.12 833.315 2101.55 832.71 2101.83 831.96C2102.11 831.21 2102.25 830.398 2102.25 829.523C2102.25 828.648 2102.11 827.832 2101.83 827.077C2101.55 826.321 2101.12 825.71 2100.54 825.244C2099.96 824.778 2099.22 824.545 2098.33 824.545C2097.43 824.545 2096.69 824.778 2096.11 825.244C2095.53 825.71 2095.1 826.321 2094.82 827.077C2094.55 827.832 2094.41 828.648 2094.41 829.523C2094.41 830.398 2094.55 831.21 2094.82 831.96C2095.1 832.71 2095.53 833.315 2096.11 833.776C2096.69 834.236 2097.43 834.466 2098.33 834.466ZM2109.2 831.227L2109.17 828.739H2109.58L2115.31 822.909H2117.8L2111.69 829.08H2111.52L2109.2 831.227ZM2107.33 836V818.545H2109.34V836H2107.33ZM2115.65 836L2110.53 829.523L2111.97 828.125L2118.2 836H2115.65ZM2128.63 830.648V822.909H2130.65V836H2128.63V833.784H2128.5C2128.19 834.449 2127.71 835.014 2127.07 835.48C2126.42 835.94 2125.6 836.17 2124.61 836.17C2123.79 836.17 2123.07 835.991 2122.43 835.634C2121.79 835.27 2121.29 834.724 2120.93 833.997C2120.57 833.264 2120.38 832.341 2120.38 831.227V822.909H2122.4V831.091C2122.4 832.045 2122.66 832.807 2123.2 833.375C2123.74 833.943 2124.42 834.227 2125.26 834.227C2125.76 834.227 2126.27 834.099 2126.78 833.844C2127.31 833.588 2127.74 833.196 2128.1 832.668C2128.45 832.139 2128.63 831.466 2128.63 830.648ZM2134.33 840.909V822.909H2136.27V824.989H2136.51C2136.66 824.761 2136.86 824.472 2137.12 824.119C2137.39 823.761 2137.77 823.443 2138.27 823.165C2138.77 822.881 2139.44 822.739 2140.3 822.739C2141.4 822.739 2142.37 823.014 2143.21 823.565C2144.05 824.116 2144.71 824.898 2145.18 825.909C2145.65 826.92 2145.89 828.114 2145.89 829.489C2145.89 830.875 2145.65 832.077 2145.18 833.094C2144.71 834.105 2144.05 834.889 2143.22 835.446C2142.38 835.997 2141.42 836.273 2140.33 836.273C2139.49 836.273 2138.81 836.134 2138.31 835.855C2137.8 835.571 2137.41 835.25 2137.14 834.892C2136.87 834.528 2136.66 834.227 2136.51 833.989H2136.34V840.909H2134.33ZM2136.31 829.455C2136.31 830.443 2136.45 831.315 2136.74 832.071C2137.03 832.821 2137.45 833.409 2138.01 833.835C2138.57 834.256 2139.25 834.466 2140.06 834.466C2140.9 834.466 2141.6 834.244 2142.16 833.801C2142.73 833.352 2143.16 832.75 2143.44 831.994C2143.73 831.233 2143.87 830.386 2143.87 829.455C2143.87 828.534 2143.73 827.705 2143.45 826.966C2143.17 826.222 2142.75 825.634 2142.18 825.202C2141.62 824.764 2140.91 824.545 2140.06 824.545C2139.24 824.545 2138.55 824.753 2137.99 825.168C2137.44 825.577 2137.02 826.151 2136.73 826.889C2136.45 827.622 2136.31 828.477 2136.31 829.455ZM2158.23 825.841L2156.42 826.352C2156.31 826.051 2156.14 825.759 2155.92 825.474C2155.7 825.185 2155.41 824.946 2155.03 824.759C2154.66 824.571 2154.18 824.477 2153.59 824.477C2152.79 824.477 2152.12 824.662 2151.59 825.031C2151.06 825.395 2150.8 825.858 2150.8 826.42C2150.8 826.92 2150.98 827.315 2151.34 827.605C2151.7 827.895 2152.27 828.136 2153.05 828.33L2154.99 828.807C2156.16 829.091 2157.03 829.526 2157.6 830.111C2158.18 830.69 2158.47 831.437 2158.47 832.352C2158.47 833.102 2158.25 833.773 2157.82 834.364C2157.39 834.955 2156.8 835.42 2156.03 835.761C2155.26 836.102 2154.37 836.273 2153.35 836.273C2152.02 836.273 2150.91 835.983 2150.04 835.403C2149.16 834.824 2148.61 833.977 2148.37 832.864L2150.28 832.386C2150.47 833.091 2150.81 833.619 2151.31 833.972C2151.83 834.324 2152.49 834.5 2153.32 834.5C2154.26 834.5 2155 834.301 2155.55 833.903C2156.11 833.5 2156.39 833.017 2156.39 832.455C2156.39 832 2156.23 831.619 2155.91 831.312C2155.59 831 2155.1 830.767 2154.44 830.614L2152.26 830.102C2151.06 829.818 2150.18 829.378 2149.62 828.781C2149.06 828.179 2148.78 827.426 2148.78 826.523C2148.78 825.784 2148.99 825.131 2149.41 824.562C2149.83 823.994 2150.4 823.548 2151.12 823.224C2151.85 822.901 2152.67 822.739 2153.59 822.739C2154.89 822.739 2155.9 823.023 2156.64 823.591C2157.39 824.159 2157.91 824.909 2158.23 825.841Z" fill="white" fill-opacity="0.5"/>
<g filter="url(#filter5_d_14_358)">
<rect x="42" y="456" width="164" height="48" rx="10" fill="#282A2F"/>
<rect x="42.5" y="456.5" width="163" height="47" rx="9.5" stroke="#353940"/>
</g>
<path d="M58.5575 473.42V471.545H71.6484V473.42H66.1598V489H64.0462V473.42H58.5575ZM74.9105 489V471.545H77.0241V487.125H85.1378V489H74.9105ZM97.956 475.909C97.8537 475.045 97.4389 474.375 96.7116 473.898C95.9844 473.42 95.0923 473.182 94.0355 473.182C93.2628 473.182 92.5866 473.307 92.0071 473.557C91.4332 473.807 90.9844 474.151 90.6605 474.588C90.3423 475.026 90.1832 475.523 90.1832 476.08C90.1832 476.545 90.294 476.946 90.5156 477.281C90.7429 477.611 91.0327 477.886 91.3849 478.108C91.7372 478.324 92.1065 478.503 92.4929 478.645C92.8793 478.781 93.2344 478.892 93.5582 478.977L95.331 479.455C95.7855 479.574 96.2912 479.739 96.848 479.949C97.4105 480.159 97.9474 480.446 98.4588 480.81C98.9759 481.168 99.402 481.628 99.7372 482.19C100.072 482.753 100.24 483.443 100.24 484.261C100.24 485.205 99.9929 486.057 99.4986 486.818C99.0099 487.58 98.294 488.185 97.3509 488.634C96.4134 489.082 95.2741 489.307 93.9332 489.307C92.6832 489.307 91.6009 489.105 90.6861 488.702C89.777 488.298 89.0611 487.736 88.5384 487.014C88.0213 486.293 87.7287 485.455 87.6605 484.5H89.8423C89.8991 485.159 90.1207 485.705 90.5071 486.136C90.8991 486.562 91.3935 486.881 91.9901 487.091C92.5923 487.295 93.2401 487.398 93.9332 487.398C94.7401 487.398 95.4645 487.267 96.1065 487.006C96.7486 486.739 97.2571 486.369 97.6321 485.898C98.0071 485.42 98.1946 484.864 98.1946 484.227C98.1946 483.648 98.0327 483.176 97.7088 482.812C97.3849 482.449 96.9588 482.153 96.4304 481.926C95.902 481.699 95.331 481.5 94.7173 481.33L92.5696 480.716C91.206 480.324 90.1264 479.764 89.331 479.037C88.5355 478.31 88.1378 477.358 88.1378 476.182C88.1378 475.205 88.402 474.352 88.9304 473.625C89.4645 472.892 90.1804 472.324 91.0781 471.92C91.9815 471.511 92.9901 471.307 94.1037 471.307C95.2287 471.307 96.2287 471.509 97.1037 471.912C97.9787 472.31 98.6719 472.855 99.1832 473.548C99.7003 474.241 99.973 475.028 100.001 475.909H97.956ZM116.295 471.545V489H114.181V473.761H114.079L109.817 476.591V474.443L114.181 471.545H116.295ZM121.783 489.136C121.363 489.136 121.002 488.986 120.701 488.685C120.4 488.384 120.249 488.023 120.249 487.602C120.249 487.182 120.4 486.821 120.701 486.52C121.002 486.219 121.363 486.068 121.783 486.068C122.204 486.068 122.565 486.219 122.866 486.52C123.167 486.821 123.317 487.182 123.317 487.602C123.317 487.881 123.246 488.136 123.104 488.369C122.968 488.602 122.783 488.79 122.55 488.932C122.323 489.068 122.067 489.136 121.783 489.136ZM130.943 471.545V489H128.83V473.761H128.727L124.466 476.591V474.443L128.83 471.545H130.943ZM135.963 489V487.466L141.724 481.159C142.401 480.42 142.957 479.778 143.395 479.233C143.832 478.682 144.156 478.165 144.366 477.682C144.582 477.193 144.69 476.682 144.69 476.148C144.69 475.534 144.543 475.003 144.247 474.554C143.957 474.105 143.56 473.759 143.054 473.514C142.548 473.27 141.98 473.148 141.349 473.148C140.679 473.148 140.094 473.287 139.594 473.565C139.099 473.838 138.716 474.222 138.443 474.716C138.176 475.21 138.043 475.79 138.043 476.455H136.031C136.031 475.432 136.267 474.534 136.739 473.761C137.21 472.989 137.852 472.386 138.665 471.955C139.483 471.523 140.401 471.307 141.418 471.307C142.44 471.307 143.347 471.523 144.136 471.955C144.926 472.386 145.545 472.969 145.994 473.702C146.443 474.435 146.668 475.25 146.668 476.148C146.668 476.79 146.551 477.418 146.318 478.031C146.091 478.639 145.693 479.318 145.125 480.068C144.562 480.812 143.781 481.722 142.781 482.795L138.861 486.989V487.125H146.974V489H135.963ZM156.699 470.727L151.074 491.625H149.233L154.858 470.727H156.699ZM165.185 471.545V489H163.072V473.761H162.969L158.708 476.591V474.443L163.072 471.545H165.185ZM170.674 489.136C170.254 489.136 169.893 488.986 169.592 488.685C169.29 488.384 169.14 488.023 169.14 487.602C169.14 487.182 169.29 486.821 169.592 486.52C169.893 486.219 170.254 486.068 170.674 486.068C171.094 486.068 171.455 486.219 171.756 486.52C172.058 486.821 172.208 487.182 172.208 487.602C172.208 487.881 172.137 488.136 171.995 488.369C171.859 488.602 171.674 488.79 171.441 488.932C171.214 489.068 170.958 489.136 170.674 489.136ZM181.025 489.239C179.9 489.239 178.897 489.045 178.016 488.659C177.141 488.273 176.445 487.736 175.928 487.048C175.417 486.355 175.138 485.551 175.093 484.636H177.241C177.286 485.199 177.479 485.685 177.82 486.094C178.161 486.497 178.607 486.81 179.158 487.031C179.71 487.253 180.32 487.364 180.991 487.364C181.741 487.364 182.406 487.233 182.985 486.972C183.565 486.71 184.019 486.347 184.349 485.881C184.678 485.415 184.843 484.875 184.843 484.261C184.843 483.619 184.684 483.054 184.366 482.565C184.048 482.071 183.582 481.685 182.968 481.406C182.354 481.128 181.604 480.989 180.718 480.989H179.32V479.114H180.718C181.411 479.114 182.019 478.989 182.542 478.739C183.07 478.489 183.482 478.136 183.778 477.682C184.079 477.227 184.229 476.693 184.229 476.08C184.229 475.489 184.099 474.974 183.837 474.537C183.576 474.099 183.207 473.759 182.729 473.514C182.258 473.27 181.701 473.148 181.059 473.148C180.457 473.148 179.888 473.259 179.354 473.48C178.826 473.696 178.394 474.011 178.059 474.426C177.724 474.835 177.542 475.33 177.513 475.909H175.468C175.502 474.994 175.778 474.193 176.295 473.506C176.812 472.812 177.488 472.273 178.323 471.886C179.164 471.5 180.087 471.307 181.093 471.307C182.173 471.307 183.099 471.526 183.871 471.963C184.644 472.395 185.238 472.966 185.653 473.676C186.067 474.386 186.275 475.153 186.275 475.977C186.275 476.96 186.016 477.798 185.499 478.491C184.988 479.185 184.292 479.665 183.411 479.932V480.068C184.513 480.25 185.374 480.719 185.994 481.474C186.613 482.224 186.923 483.153 186.923 484.261C186.923 485.21 186.664 486.062 186.147 486.818C185.636 487.568 184.937 488.159 184.05 488.591C183.164 489.023 182.156 489.239 181.025 489.239Z" fill="white" fill-opacity="0.5"/>
<defs>
<filter id="filter0_d_14_358" x="332" y="647" width="174" height="88" filterUnits="userSpaceOnUse" color-interpolation-filters="sRGB">
<feFlood flood-opacity="0" result="BackgroundImageFix"/>
<feColorMatrix in="SourceAlpha" type="matrix" values="0 0 0 0 0 0 0 0 0 0 0 0 0 0 0 0 0 0 127 0" result="hardAlpha"/>
<feOffset/>
<feGaussianBlur stdDeviation="10"/>
<feComposite in2="hardAlpha" operator="out"/>
<feColorMatrix type="matrix" values="0 0 0 0 0 0 0 0 0 0 0 0 0 0 0 0 0 0 0.3 0"/>
<feBlend mode="normal" in2="BackgroundImageFix" result="effect1_dropShadow_14_358"/>
<feBlend mode="normal" in="SourceGraphic" in2="effect1_dropShadow_14_358" result="shape"/>
</filter>
<filter id="filter1_d_14_358" x="581" y="323" width="195" height="88" filterUnits="userSpaceOnUse" color-interpolation-filters="sRGB">
<feFlood flood-opacity="0" result="BackgroundImageFix"/>
<feColorMatrix in="SourceAlpha" type="matrix" values="0 0 0 0 0 0 0 0 0 0 0 0 0 0 0 0 0 0 127 0" result="hardAlpha"/>
<feOffset/>
<feGaussianBlur stdDeviation="10"/>
<feComposite in2="hardAlpha" operator="out"/>
<feColorMatrix type="matrix" values="0 0 0 0 0 0 0 0 0 0 0 0 0 0 0 0 0 0 0.3 0"/>
<feBlend mode="normal" in2="BackgroundImageFix" result="effect1_dropShadow_14_358"/>
<feBlend mode="normal" in="SourceGraphic" in2="effect1_dropShadow_14_358" result="shape"/>
</filter>
<filter id="filter2_d_14_358" x="1809" y="380" width="194" height="88" filterUnits="userSpaceOnUse" color-interpolation-filters="sRGB">
<feFlood flood-opacity="0" result="BackgroundImageFix"/>
<feColorMatrix in="SourceAlpha" type="matrix" values="0 0 0 0 0 0 0 0 0 0 0 0 0 0 0 0 0 0 127 0" result="hardAlpha"/>
<feOffset/>
<feGaussianBlur stdDeviation="10"/>
<feComposite in2="hardAlpha" operator="out"/>
<feColorMatrix type="matrix" values="0 0 0 0 0 0 0 0 0 0 0 0 0 0 0 0 0 0 0.3 0"/>
<feBlend mode="normal" in2="BackgroundImageFix" result="effect1_dropShadow_14_358"/>
<feBlend mode="normal" in="SourceGraphic" in2="effect1_dropShadow_14_358" result="shape"/>
</filter>
<filter id="filter3_d_14_358" x="1645" y="665" width="174" height="88" filterUnits="userSpaceOnUse" color-interpolation-filters="sRGB">
<feFlood flood-opacity="0" result="BackgroundImageFix"/>
<feColorMatrix in="SourceAlpha" type="matrix" values="0 0 0 0 0 0 0 0 0 0 0 0 0 0 0 0 0 0 127 0" result="hardAlpha"/>
<feOffset/>
<feGaussianBlur stdDeviation="10"/>
<feComposite in2="hardAlpha" operator="out"/>
<feColorMatrix type="matrix" values="0 0 0 0 0 0 0 0 0 0 0 0 0 0 0 0 0 0 0.3 0"/>
<feBlend mode="normal" in2="BackgroundImageFix" result="effect1_dropShadow_14_358"/>
<feBlend mode="normal" in="SourceGraphic" in2="effect1_dropShadow_14_358" result="shape"/>
</filter>
<filter id="filter4_d_14_358" x="1998" y="747" width="227" height="123" filterUnits="userSpaceOnUse" color-interpolation-filters="sRGB">
<feFlood flood-opacity="0" result="BackgroundImageFix"/>
<feColorMatrix in="SourceAlpha" type="matrix" values="0 0 0 0 0 0 0 0 0 0 0 0 0 0 0 0 0 0 127 0" result="hardAlpha"/>
<feOffset/>
<feGaussianBlur stdDeviation="10"/>
<feComposite in2="hardAlpha" operator="out"/>
<feColorMatrix type="matrix" values="0 0 0 0 0 0 0 0 0 0 0 0 0 0 0 0 0 0 0.3 0"/>
<feBlend mode="normal" in2="BackgroundImageFix" result="effect1_dropShadow_14_358"/>
<feBlend mode="normal" in="SourceGraphic" in2="effect1_dropShadow_14_358" result="shape"/>
</filter>
<filter id="filter5_d_14_358" x="22" y="436" width="204" height="88" filterUnits="userSpaceOnUse" color-interpolation-filters="sRGB">
<feFlood flood-opacity="0" result="BackgroundImageFix"/>
<feColorMatrix in="SourceAlpha" type="matrix" values="0 0 0 0 0 0 0 0 0 0 0 0 0 0 0 0 0 0 127 0" result="hardAlpha"/>
<feOffset/>
<feGaussianBlur stdDeviation="10"/>
<feComposite in2="hardAlpha" operator="out"/>
<feColorMatrix type="matrix" values="0 0 0 0 0 0 0 0 0 0 0 0 0 0 0 0 0 0 0.3 0"/>
<feBlend mode="normal" in2="BackgroundImageFix" result="effect1_dropShadow_14_358"/>
<feBlend mode="normal" in="SourceGraphic" in2="effect1_dropShadow_14_358" result="shape"/>
</filter>
<radialGradient id="paint0_radial_14_358" cx="0" cy="0" r="1" gradientUnits="userSpaceOnUse" gradientTransform="translate(1152.5 625) rotate(90.0755) scale(379.5 1122.62)">
<stop stop-color="#D0D0D0"/>
<stop offset="1" stop-color="#D0D0D0" stop-opacity="0"/>
</radialGradient>
<radialGradient id="paint1_radial_14_358" cx="0" cy="0" r="1" gradientUnits="userSpaceOnUse" gradientTransform="translate(1152.5 625) rotate(90) scale(398 1312.09)">
<stop stop-color="#D0D0D0"/>
<stop offset="1" stop-color="#D0D0D0" stop-opacity="0"/>
</radialGradient>
<radialGradient id="paint2_radial_14_358" cx="0" cy="0" r="1" gradientUnits="userSpaceOnUse" gradientTransform="translate(1152.5 625) rotate(90) scale(472 1539.25)">
<stop stop-color="#D0D0D0"/>
<stop offset="1" stop-color="#D0D0D0" stop-opacity="0"/>
</radialGradient>
<radialGradient id="paint3_radial_14_358" cx="0" cy="0" r="1" gradientUnits="userSpaceOnUse" gradientTransform="translate(1152.5 625) rotate(90) scale(548 2093.29)">
<stop stop-color="#D0D0D0"/>
<stop offset="1" stop-color="#D0D0D0" stop-opacity="0"/>
</radialGradient>
<radialGradient id="paint4_radial_14_358" cx="0" cy="0" r="1" gradientUnits="userSpaceOnUse" gradientTransform="translate(1152 625) rotate(90) scale(625 2491.7)">
<stop stop-color="#D0D0D0"/>
<stop offset="1" stop-color="#D0D0D0" stop-opacity="0"/>
</radialGradient>
</defs>
</svg>
